HIERARCHY
ROOT Hip
{
	OFFSET 0 1.131 0.0052
	CHANNELS 6 Xposition Yposition Zposition Xrotation Yrotation Zrotation
	JOINT Abdomen
	{
		OFFSET 0 -0.047353 -0.05
		CHANNELS 3 Xrotation Zrotation Yrotation
		JOINT Chest
		{
			OFFSET 0 0.132153 0.007439
			CHANNELS 3 Xrotation Zrotation Yrotation
			JOINT Neck
			{
				OFFSET 0 0.3078 0.006161
				CHANNELS 3 Xrotation Zrotation Yrotation
				JOINT Head_comp
				{
					OFFSET 0 0.0884 0.013
					CHANNELS 3 Xrotation Yrotation Zrotation
					End Site
					{
						OFFSET -0 0.156 0.0624
					}
				}
			}
			JOINT Left_Collar
			{
				OFFSET 0.02282 0.250342 0.017193
				CHANNELS 2 Yrotation Zrotation
				JOINT Left_Shoulder
				{
					OFFSET 0.15421 0 0
					CHANNELS 3 Xrotation Yrotation Zrotation
					JOINT Left_Forearm
					{
						OFFSET 0.265212 0 0
						CHANNELS 2 Yrotation Xrotation
						JOINT Left_Hand
						{
							OFFSET 0.27571 0 0
							CHANNELS 2 Zrotation Yrotation
							JOINT L1ProxPhalanx
							{
								OFFSET 0.014142 0.001733 0.014142
								CHANNELS 3 Yrotation Zrotation Xrotation
								JOINT L1MidPhalanx
								{
									OFFSET 0.04 0 0
									CHANNELS 1 Zrotation
									JOINT L1DistPhalanx
									{
										OFFSET 0.035 0 0
										CHANNELS 1 Zrotation
										End Site
										{
											OFFSET 0.029 -0 -0
										}
									}
								}
							}
							JOINT L2ProxPhalanx
							{
								OFFSET 0.0821037 0.001578 0.0219996
								CHANNELS 2 Yrotation Zrotation
								JOINT L2MidPhalanx
								{
									OFFSET 0.04 0 0
									CHANNELS 1 Zrotation
									JOINT L2DistPhalanx
									{
										OFFSET 0.028 0 0
										CHANNELS 1 Zrotation
										End Site
										{
											OFFSET 0.02 -0 -0
										}
									}
								}
							}
							JOINT L3ProxPhalanx
							{
								OFFSET 0.083 0 0
								CHANNELS 2 Yrotation Zrotation
								JOINT L3MidPhalanx
								{
									OFFSET 0.053 0 0
									CHANNELS 1 Zrotation
									JOINT L3DistPhalanx
									{
										OFFSET 0.03 0 0
										CHANNELS 1 Zrotation
										End Site
										{
											OFFSET 0.023 -0 -0
										}
									}
								}
							}
							JOINT L4ProxPhalanx
							{
								OFFSET 0.077274 -0.000761 -0.0207055
								CHANNELS 2 Yrotation Zrotation
								JOINT L4MidPhalanx
								{
									OFFSET 0.05 0 0
									CHANNELS 1 Zrotation
									JOINT L4DistPhalanx
									{
										OFFSET 0.03 0 0
										CHANNELS 1 Zrotation
										End Site
										{
											OFFSET 0.023 -0 -0
										}
									}
								}
							}
							JOINT L5ProxPhalanx
							{
								OFFSET 0.0675499 -0.001644 -0.039
								CHANNELS 2 Yrotation Zrotation
								JOINT L5MidPhalanx
								{
									OFFSET 0.04 0 0
									CHANNELS 1 Zrotation
									JOINT L5DistPhalanx
									{
										OFFSET 0.021 0 0
										CHANNELS 1 Zrotation
										End Site
										{
											OFFSET 0.022 -0 -0
										}
									}
								}
							}
						}
					}
				}
			}
			JOINT Right_Collar
			{
				OFFSET -0.02282 0.250342 0.017193
				CHANNELS 2 Yrotation Zrotation
				JOINT Right_Shoulder
				{
					OFFSET -0.15421 0 0
					CHANNELS 3 Xrotation Yrotation Zrotation
					JOINT Right_Forearm
					{
						OFFSET -0.265212 0 0
						CHANNELS 2 Yrotation Xrotation
						JOINT Right_Hand
						{
							OFFSET -0.27571 3e-006 0
							CHANNELS 2 Zrotation Yrotation
							JOINT R1ProxPhalanx
							{
								OFFSET -0.014142 0.001733 0.014142
								CHANNELS 3 Yrotation Zrotation Xrotation
								JOINT R1MidPhalanx
								{
									OFFSET -0.04 0 0
									CHANNELS 1 Zrotation
									JOINT R1DistPhalanx
									{
										OFFSET -0.035 0 0
										CHANNELS 1 Zrotation
										End Site
										{
											OFFSET -0.029 -0 -0
										}
									}
								}
							}
							JOINT R2ProxPhalanx
							{
								OFFSET -0.0821037 0.001578 0.0219996
								CHANNELS 2 Yrotation Zrotation
								JOINT R2MidPhalanx
								{
									OFFSET -0.04 0 0
									CHANNELS 1 Zrotation
									JOINT R2DistPhalanx
									{
										OFFSET -0.028 0 0
										CHANNELS 1 Zrotation
										End Site
										{
											OFFSET -0.02 -0 -0
										}
									}
								}
							}
							JOINT R3ProxPhalanx
							{
								OFFSET -0.083 0 0
								CHANNELS 2 Yrotation Zrotation
								JOINT R3MidPhalanx
								{
									OFFSET -0.053 0 0
									CHANNELS 1 Zrotation
									JOINT R3DistPhalanx
									{
										OFFSET -0.03 0 0
										CHANNELS 1 Zrotation
										End Site
										{
											OFFSET -0.023 -0 -0
										}
									}
								}
							}
							JOINT R4ProxPhalanx
							{
								OFFSET -0.077274 -0.000761 -0.0207055
								CHANNELS 2 Yrotation Zrotation
								JOINT R4MidPhalanx
								{
									OFFSET -0.05 0 0
									CHANNELS 1 Zrotation
									JOINT R4DistPhalanx
									{
										OFFSET -0.03 0 0
										CHANNELS 1 Zrotation
										End Site
										{
											OFFSET -0.023 -0 -0
										}
									}
								}
							}
							JOINT R5ProxPhalanx
							{
								OFFSET -0.0675499 -0.001644 -0.039
								CHANNELS 2 Yrotation Zrotation
								JOINT R5MidPhalanx
								{
									OFFSET -0.04 0 0
									CHANNELS 1 Zrotation
									JOINT R5DistPhalanx
									{
										OFFSET -0.021 0 0
										CHANNELS 1 Zrotation
										End Site
										{
											OFFSET -0.022 -0 -0
										}
									}
								}
							}
						}
					}
				}
			}
		}
	}
	JOINT Left_Thigh
	{
		OFFSET 0.1118 -0.1612 -0.0442
		CHANNELS 3 Xrotation Zrotation Yrotation
		JOINT Left_Shin
		{
			OFFSET 0 -0.477856 0
			CHANNELS 1 Xrotation
			JOINT Left_Foot
			{
				OFFSET 0 -0.431952 0
				CHANNELS 2 Xrotation Zrotation
				JOINT Left_Toe
				{
					OFFSET 0 -0.0442 0.119
					CHANNELS 1 Xrotation
					End Site
					{
						OFFSET -0 -0 0.07
					}
				}
			}
		}
	}
	JOINT Right_Thigh
	{
		OFFSET -0.1118 -0.1612 -0.0442
		CHANNELS 3 Xrotation Zrotation Yrotation
		JOINT Right_Shin
		{
			OFFSET 0 -0.477856 0
			CHANNELS 1 Xrotation
			JOINT Right_Foot
			{
				OFFSET 0 -0.431952 0
				CHANNELS 2 Xrotation Zrotation
				JOINT Right_Toe
				{
					OFFSET 0 -0.0442 0.119
					CHANNELS 1 Xrotation
					End Site
					{
						OFFSET -0 -0 0.07
					}
				}
			}
		}
	}
}
MOTION
Frames: 11
Frame Time: 0.009975
-0.103534 -0.0600731 0.0479044 1.55642e-013 5.00098e-008 -5.10929e-006 0 0 0 0 0 0 0 0 0 0 0 0 0 0 -0 0 -0 0 0 0 0 -43.2792 -61.0525 116.36 -7.48701 -3.42612 10.0996 -0.680617 -19.9019 -24.5377 9.62861 1.21954 0.900059 -1.62955 5.95166 2.51145 -6.53567 3.24896 7.00303 5.6434 -55.0619 45.321 0 0 -0 0 -0 0 0 0 0 37.9386 28.008 73.698 26.2405 28.4472 13.118 18.2167 29.0248 19.6359 0 22.4358 32.6146 28.1246 -8.63175 30.7051 32.2053 23.7634 -7.83088 26.7354 35.1526 30.0193 0.549389 -0.520584 -0.00499184 0.0240216 -0.573388 0.520614 0 0.560793 -0.520583 -0.00509545 2.83165e-006 -0.560772 0.520614 0 
-0.103534 -0.0600731 0.0479044 1.55642e-013 5.00098e-008 -5.10929e-006 0 0 0 0 0 0 0 0 0 0 0 0 0 0 -0 0 -0 0 0 0 0 -43.2792 -61.0525 116.36 -7.48701 -3.42612 10.0996 -0.680617 -19.9019 -24.5377 9.62861 1.21954 0.900059 -1.62955 5.95166 2.51145 -6.53567 3.24896 7.00303 5.6434 -55.0619 45.321 0 0 -0 0 -0 0 0 0 0 37.9386 28.008 73.698 26.2405 28.4472 13.118 18.2167 29.0248 19.6359 0 22.4358 32.6146 28.1246 -8.63175 30.7051 32.2053 23.7634 -7.83088 26.7354 35.1526 30.0193 0.549389 -0.520584 -0.00499184 0.0240216 -0.573388 0.520614 0 0.560793 -0.520583 -0.00509545 2.83165e-006 -0.560772 0.520614 0 
-0.101405 -0.0600572 0.0358398 -4.70457e-012 -1.77497e-008 -5.08408e-006 0 -0 0 0 -0 0 0 -0 0 -0.710108 0.291034 -9.06292e-006 -6.33025 -23.4677 -30.6974 -18.1178 -43.2665 -28.6077 1.06214 44.5011 5.46431 -43.4808 -60.8938 116.049 -7.62458 -3.50899 10.0454 -0.826878 -20.0024 -24.49 9.58182 1.05392 0.695559 -1.7114 5.93007 2.33898 -6.70299 3.14271 6.99813 5.49519 -54.9566 44.9944 6.33025 23.4677 -30.6974 18.1178 43.2665 28.6077 1.06214 -44.5011 -5.46431 43.4808 60.8938 116.049 7.62458 3.50899 -10.0454 0.826878 20.0024 24.49 -9.58182 -1.05392 -0.695559 1.7114 -5.93007 -2.33898 6.70299 -3.14271 -6.99813 -5.49519 54.9566 -44.9944 -0.21038 -0.654617 0.00240966 0.0239015 0.186465 0.654627 0 -0.199032 -0.654618 0.00227968 2.40276e-006 0.199016 0.654627 0 
-0.10135 -0.0600601 0.0351665 -4.72822e-012 -1.78389e-008 -5.10963e-006 0 -0 0 0 -0 0 0 -0 0 -0.71172 0.290729 -2.27974e-010 -6.36161 -23.5855 -30.289 -18.7187 -41.0868 -30.039 1.06736 44.7246 5.49037 -43.2792 -61.0525 116.36 -7.48701 -3.42612 10.0996 -0.680617 -19.9019 -24.5377 9.62861 1.21954 0.900059 -1.62955 5.95166 2.51145 -6.53567 3.24896 7.00303 5.6434 -55.0619 45.321 6.36161 23.5855 -30.289 18.7187 41.0868 30.039 1.06736 -44.7246 -5.49037 43.2792 61.0525 116.36 7.48701 3.42612 -10.0996 0.680617 19.9019 24.5377 -9.62861 -1.21954 -0.900059 1.62955 -5.95166 -2.51145 6.53567 -3.24896 -7.00303 -5.6434 55.0619 -45.321 -0.252841 -0.658112 0.00290417 0.0240216 0.228803 0.658124 0 -0.241436 -0.658113 0.00277317 2.41484e-006 0.241417 0.658124 0 
-0.10135 -0.0600601 0.0351569 3.19396e-012 -2.15592e-008 -5.10961e-006 0 -0 0 0 -0 0 0 -0 0 -0.711698 0.29071 -3.85655e-015 -6.36161 -23.5855 -30.285 -18.7221 -41.0719 -30.0487 1.06736 44.7246 5.49037 -43.2792 -61.0525 116.36 -7.48701 -3.42612 10.0996 -0.680617 -19.9019 -24.5377 9.62861 1.21954 0.900059 -1.62955 5.95166 2.51145 -6.53567 3.24896 7.00303 5.6434 -55.0619 45.321 6.36161 23.5855 -30.285 18.7221 41.0719 30.0487 1.06736 -44.7246 -5.49037 43.2792 61.0525 116.36 7.48701 3.42612 -10.0996 0.680617 19.9019 24.5377 -9.62861 -1.21954 -0.900059 1.62955 -5.95166 -2.51145 6.53567 -3.24896 -7.00303 -5.6434 55.0619 -45.321 -0.253445 -0.658116 0.00291112 0.0240216 0.229406 0.658127 0 -0.242039 -0.658116 0.00278011 2.41484e-006 0.242021 0.658127 0 
-0.10135 -0.0600601 0.0351568 6.54813e-014 -2.15853e-008 -5.10962e-006 0 -0 0 0 -0 0 0 -0 0 -0.711697 0.29071 -0 -6.36161 -23.5855 -30.285 -18.7221 -41.0719 -30.0487 1.06736 44.7246 5.49037 -43.2792 -61.0525 116.36 -7.48701 -3.42612 10.0996 -0.680617 -19.9019 -24.5377 9.62861 1.21954 0.900059 -1.62955 5.95166 2.51145 -6.53567 3.24896 7.00303 5.6434 -55.0619 45.321 6.36161 23.5855 -30.285 18.7221 41.0719 30.0487 1.06736 -44.7246 -5.49037 43.2792 61.0525 116.36 7.48701 3.42612 -10.0996 0.680617 19.9019 24.5377 -9.62861 -1.21954 -0.900059 1.62955 -5.95166 -2.51145 6.53567 -3.24896 -7.00303 -5.6434 55.0619 -45.321 -0.253448 -0.658116 0.00291115 0.0240216 0.229409 0.658127 0 -0.242045 -0.658116 0.00278017 3.01855e-008 0.242029 0.658127 0 
-0.10135 -0.0600601 0.0351568 7.11466e-014 -2.15856e-008 -5.10961e-006 0 -0 0 0 -0 0 0 -0 0 -0.711697 0.29071 -0 -6.36161 -23.5855 -30.285 -18.7221 -41.0719 -30.0487 1.06736 44.7246 5.49037 -43.2792 -61.0525 116.36 -7.48701 -3.42612 10.0996 -0.680617 -19.9019 -24.5377 9.62861 1.21954 0.900059 -1.62955 5.95166 2.51145 -6.53567 3.24896 7.00303 5.6434 -55.0619 45.321 6.36161 23.5855 -30.285 18.7221 41.0719 30.0487 1.06736 -44.7246 -5.49037 43.2792 61.0525 116.36 7.48701 3.42612 -10.0996 0.680617 19.9019 24.5377 -9.62861 -1.21954 -0.900059 1.62955 -5.95166 -2.51145 6.53567 -3.24896 -7.00303 -5.6434 55.0619 -45.321 -0.25345 -0.658116 0.00291118 0.0240216 0.229412 0.658127 0 -0.242045 -0.658116 0.00278018 2.37861e-006 0.242026 0.658127 0 
-0.10135 -0.0600601 0.0351568 1.68203e-013 -2.15856e-008 -5.10961e-006 0 -0 0 0 -0 0 0 -0 0 -0.711697 0.29071 -0 -6.36161 -23.5855 -30.285 -18.7221 -41.0719 -30.0487 1.06736 44.7246 5.49037 -43.2792 -61.0525 116.36 -7.48701 -3.42612 10.0996 -0.680617 -19.9019 -24.5377 9.62861 1.21954 0.900059 -1.62955 5.95166 2.51145 -6.53567 3.24896 7.00303 5.6434 -55.0619 45.321 6.36161 23.5855 -30.285 18.7221 41.0719 30.0487 1.06736 -44.7246 -5.49037 43.2792 61.0525 116.36 7.48701 3.42612 -10.0996 0.680617 19.9019 24.5377 -9.62861 -1.21954 -0.900059 1.62955 -5.95166 -2.51145 6.53567 -3.24896 -7.00303 -5.6434 55.0619 -45.321 -0.25345 -0.658116 0.00291118 0.0240216 0.229412 0.658127 0 -0.242045 -0.658116 0.00278017 2.41484e-006 0.242026 0.658127 0 
-0.10135 -0.0600601 0.0351568 -1.30601e-012 -2.15856e-008 -5.10962e-006 0 -0 0 0 -0 0 0 -0 0 -0.711697 0.29071 -3.88256e-019 -6.36161 -23.5855 -30.285 -18.7221 -41.0719 -30.0487 1.06736 44.7246 5.49037 -43.2792 -61.0525 116.36 -7.48701 -3.42612 10.0996 -0.680617 -19.9019 -24.5377 9.62861 1.21954 0.900059 -1.62955 5.95166 2.51145 -6.53567 3.24896 7.00303 5.6434 -55.0619 45.321 6.36161 23.5855 -30.285 18.7221 41.0719 30.0487 1.06736 -44.7246 -5.49037 43.2792 61.0525 116.36 7.48701 3.42612 -10.0996 0.680617 19.9019 24.5377 -9.62861 -1.21954 -0.900059 1.62955 -5.95166 -2.51145 6.53567 -3.24896 -7.00303 -5.6434 55.0619 -45.321 -0.25345 -0.658116 0.00291118 0.0240216 0.229412 0.658127 0 -0.242045 -0.658116 0.00278017 1.70755e-006 0.242027 0.658127 0 
-0.10135 -0.0600601 0.0351568 -1.36835e-012 -2.15856e-008 -5.10962e-006 0 -0 0 0 -0 0 0 -0 0 -0.711697 0.29071 -0 -6.36161 -23.5855 -30.285 -18.7221 -41.0719 -30.0487 1.06736 44.7246 5.49037 -43.2792 -61.0525 116.36 -7.48701 -3.42612 10.0996 -0.680617 -19.9019 -24.5377 9.62861 1.21954 0.900059 -1.62955 5.95166 2.51145 -6.53567 3.24896 7.00303 5.6434 -55.0619 45.321 6.36161 23.5855 -30.285 18.7221 41.0719 30.0487 1.06736 -44.7246 -5.49037 43.2792 61.0525 116.36 7.48701 3.42612 -10.0996 0.680617 19.9019 24.5377 -9.62861 -1.21954 -0.900059 1.62955 -5.95166 -2.51145 6.53567 -3.24896 -7.00303 -5.6434 55.0619 -45.321 -0.25345 -0.658116 0.00291118 0.0240216 0.229412 0.658127 0 -0.242045 -0.658116 0.00278017 1.70755e-006 0.242027 0.658127 0 
-0.10135 -0.0600601 0.0351568 2.94746e-012 -2.15856e-008 -5.10962e-006 0 -0 0 0 -0 0 0 -0 0 -0.711697 0.29071 -0 -6.36161 -23.5855 -30.285 -18.7221 -41.0719 -30.0487 1.06736 44.7246 5.49037 -43.2792 -61.0525 116.36 -7.48701 -3.42612 10.0996 -0.680617 -19.9019 -24.5377 9.62861 1.21954 0.900059 -1.62955 5.95166 2.51145 -6.53567 3.24896 7.00303 5.6434 -55.0619 45.321 6.36161 23.5855 -30.285 18.7221 41.0719 30.0487 1.06736 -44.7246 -5.49037 43.2792 61.0525 116.36 7.48701 3.42612 -10.0996 0.680617 19.9019 24.5377 -9.62861 -1.21954 -0.900059 1.62955 -5.95166 -2.51145 6.53567 -3.24896 -7.00303 -5.6434 55.0619 -45.321 -0.25345 -0.658116 0.00291118 0.0240216 0.229412 0.658127 0 -0.242045 -0.658116 0.00278017 4.26887e-008 0.242029 0.658127 0 
